<?xml version="1.0" standalone="no"?>
<svg width="308pt" height="119pt" viewBox="0.00 0.00 308.00 119.00" xmlns="http://www.w3.org/2000/svg" xmlns:xlink="http://www.w3.org/1999/xlink">
<g id="graph1" class="graph" transform="scale(1 1) rotate(0) translate(4 115)">
<title>G</title>
<polygon fill="white" stroke="white" points="-4,5 -4,-115 305,-115 305,5 -4,5"></polygon>
<!-- X~ -->
<g id="node1" class="node"><title>X~</title>
<ellipse fill="none" stroke="black" cx="24" cy="-88" rx="23.5" ry="23.5"></ellipse>
<text text-anchor="middle" x="24" y="-83.8" font-family="Times,serif" font-size="14.00">X~</text>
</g>
<!-- X -->
<g id="node3" class="node"><title>X</title>
<ellipse fill="none" stroke="black" cx="108" cy="-75" rx="23.5" ry="23.5"></ellipse>
<text text-anchor="middle" x="108" y="-70.8" font-family="Times,serif" font-size="14.00">X</text>
</g>
<!-- X~&#45;&gt;X -->
<g id="edge2" class="edge"><title>X~-&gt;X</title>
<path fill="none" stroke="black" d="M47.4069,-84.4477C55.8134,-83.1149 65.5431,-81.5724 74.6717,-80.1252"></path>
<polygon fill="black" stroke="black" points="75.2916,-83.5707 84.6202,-78.548 74.1955,-76.6571 75.2916,-83.5707"></polygon>
</g>
<!-- Y~ -->
<g id="node7" class="node"><title>Y~</title>
<ellipse fill="none" stroke="black" cx="192" cy="-75" rx="23.5" ry="23.5"></ellipse>
<text text-anchor="middle" x="192" y="-70.8" font-family="Times,serif" font-size="14.00">Y~</text>
</g>
<!-- X&#45;&gt;Y~ -->
<g id="edge6" class="edge"><title>X-&gt;Y~</title>
<path fill="none" stroke="black" d="M131.842,-75C140.016,-75 149.398,-75 158.245,-75"></path>
<polygon fill="black" stroke="black" points="158.281,-78.5001 168.281,-75 158.281,-71.5001 158.281,-78.5001"></polygon>
</g>
<!-- S -->
<g id="node4" class="node"><title>S</title>
<ellipse fill="none" stroke="black" cx="24" cy="-23" rx="23.5" ry="23.5"></ellipse>
<text text-anchor="middle" x="24" y="-18.8" font-family="Times,serif" font-size="14.00">S</text>
</g>
<!-- S&#45;&gt;X -->
<g id="edge4" class="edge"><title>S-&gt;X</title>
<path fill="none" stroke="black" d="M44.4329,-35.3233C54.7471,-41.864 67.6069,-50.019 78.9807,-57.2317"></path>
<polygon fill="black" stroke="black" points="77.3871,-60.3655 87.7066,-62.7652 81.1359,-54.4539 77.3871,-60.3655"></polygon>
</g>
<!-- Y -->
<g id="node9" class="node"><title>Y</title>
<ellipse fill="none" stroke="black" cx="276" cy="-49" rx="23.5" ry="23.5"></ellipse>
<text text-anchor="middle" x="276" y="-44.8" font-family="Times,serif" font-size="14.00">Y</text>
</g>
<!-- S&#45;&gt;Y -->
<g id="edge10" class="edge"><title>S-&gt;Y</title>
<path fill="none" stroke="black" d="M47.6538,-25.1135C83.4339,-28.4832 155.212,-35.371 216,-42 224.602,-42.9381 233.902,-44.013 242.519,-45.0344"></path>
<polygon fill="black" stroke="black" points="242.253,-48.5275 252.598,-46.241 243.085,-41.5771 242.253,-48.5275"></polygon>
</g>
<!-- Y~&#45;&gt;Y -->
<g id="edge8" class="edge"><title>Y~-&gt;Y</title>
<path fill="none" stroke="black" d="M214.545,-68.1688C223.419,-65.3548 233.878,-62.0388 243.578,-58.963"></path>
<polygon fill="black" stroke="black" points="244.84,-62.2347 253.315,-55.8758 242.724,-55.562 244.84,-62.2347"></polygon>
</g>
</g>
</svg>