<?xml version="1.0" encoding="UTF-8" standalone="no"?>
<svg
   xmlns:dc="http://purl.org/dc/elements/1.1/"
   xmlns:cc="http://creativecommons.org/ns#"
   xmlns:rdf="http://www.w3.org/1999/02/22-rdf-syntax-ns#"
   xmlns:svg="http://www.w3.org/2000/svg"
   xmlns="http://www.w3.org/2000/svg"
   xmlns:sodipodi="http://sodipodi.sourceforge.net/DTD/sodipodi-0.dtd"
   xmlns:inkscape="http://www.inkscape.org/namespaces/inkscape"
   sodipodi:docname="PL_logo.svg"
   inkscape:version="1.0beta2 (2b71d25, 2019-12-03)"
   id="svg8"
   version="1.1"
   viewBox="0 0 97.347235 111.87158"
   height="111.87158mm"
   width="97.347237mm">
  <defs
     id="defs2" />
  <sodipodi:namedview
     units="mm"
     viewbox-width="9.29609"
     inkscape:window-maximized="0"
     inkscape:window-y="34"
     inkscape:window-x="10"
     inkscape:window-height="1368"
     inkscape:window-width="2540"
     fit-margin-bottom="0"
     fit-margin-right="0"
     fit-margin-left="0"
     fit-margin-top="0"
     showgrid="false"
     inkscape:document-rotation="0"
     inkscape:current-layer="layer1"
     inkscape:document-units="mm"
     inkscape:cy="14.260585"
     inkscape:cx="78.012289"
     inkscape:zoom="4.6407791"
     inkscape:pageshadow="2"
     inkscape:pageopacity="0.0"
     borderopacity="1.0"
     bordercolor="#666666"
     pagecolor="#ffffff"
     id="base" />
  <metadata
     id="metadata5">
    <rdf:RDF>
      <cc:Work
         rdf:about="">
        <dc:format>image/svg+xml</dc:format>
        <dc:type
           rdf:resource="http://purl.org/dc/dcmitype/StillImage" />
        <dc:title></dc:title>
      </cc:Work>
    </rdf:RDF>
  </metadata>
  <g
     transform="translate(249.78138,97.327999)"
     id="layer1"
     inkscape:groupmode="layer"
     inkscape:label="Layer 1">
    <path
       inkscape:connector-curvature="0"
       id="path25"
       d="m -225.43199,0.55895061 -24.34939,-13.98462961 0.006,-28.04583 0.006,-28.04584 24.22089,-13.905326 c 13.32149,-7.647927 24.38793,-13.905324 24.5921,-13.905324 0.20418,0 11.20521,6.255432 24.44675,13.900963 l 24.0755,13.900967 -0.006,28.05019 -0.006,28.0502 -17.0154,9.7788296 c -9.35847,5.37836 -20.30146,11.67145 -24.31777,13.9846404 l -7.30236,4.20579 -24.34941,-13.98463039 z m 33.57732,-42.70861961 -5.7296,-5.56486 2.47977,-10.50854 c 1.36388,-5.77969 2.43384,-10.64633 2.3777,-10.81474 -0.0561,-0.16841 -5.26121,4.86201 -11.56683,11.17873 l -11.46477,11.48493 5.74064,5.53813 5.74065,5.53812 -2.47298,10.40694 c -1.36013,5.72382 -2.47498,10.64477 -2.47745,10.93544 -0.002,0.29067 5.19459,-4.68201 11.549,-11.05039 l 11.55347,-11.57889 z"
       style="fill:#792ee5;stroke-width:0.352778" />
  </g>
</svg>
